Patient4_TMGait_0pt5_01_right_33_GRF.mot
version=1
nRows=45
nColumns=19
inDegrees=no
endheader
time	F1x	F1y	F1z	M1x	M1y	M1z	F2x	F2y	F2z	M2x	M2y	M2z	EC1x	EC1y	EC1z	EC2x	EC2y	EC2z
43.42	11.9821	769.1815	55.5186	-268.0645	-38.0708	629.6172	-3.5958	-5.8608	5.3725	-2.1452	-6.2151	-6.2386	-0.0592	0.0182	-0.0073	-0.0462	0.0165	0.9585
43.4322	10.3889	771.3134	57.1326	-269.2289	-39.6257	628.6094	-2.4245	-2.6402	3.5348	-0.92445	-4.1109	-2.8864	-0.0592	0.0182	-0.0073	-0.0462	0.0165	0.9585
43.4444	9.2852	774.3558	58.2682	-270.6344	-40.656	627.8881	-1.4343	0.11445	1.9956	0.11346	-2.3347	-0.041148	-0.0592	0.0182	-0.0073	-0.0462	0.0165	0.9585
43.4566	8.8341	777.9107	58.8287	-272.1369	-41.0309	627.2212	-0.68441	2.2402	0.83231	0.91381	-0.98559	2.14	-0.0592	0.0182	-0.0073	-0.0462	0.0165	0.9585
43.4689	9.0818	781.3709	58.8136	-273.5409	-40.7263	626.1944	-0.1756	3.7412	0.031748	1.4784	-0.051386	3.6662	-0.0592	0.0182	-0.0073	-0.0462	0.0165	0.9585
43.4811	10.0145	784.0803	58.3098	-274.6363	-39.8116	624.3459	0.12719	4.6888	-0.45684	1.8346	0.52704	4.6111	-0.0592	0.0182	-0.0073	-0.0462	0.0165	0.9585
43.4933	11.5768	785.4763	57.4115	-275.2402	-38.3722	621.2929	0.2646	5.1751	-0.71568	2.0173	0.84595	5.0857	-0.0592	0.0182	-0.0073	-0.0462	0.0165	0.9585
43.5055	13.6728	785.1559	56.2307	-275.2186	-36.526	616.7821	0.28363	5.2807	-0.8178	2.0551	0.99012	5.188	-0.0592	0.0182	-0.0073	-0.0462	0.0165	0.9585
43.5177	16.1844	782.9076	54.8635	-274.4981	-34.388	610.7195	0.21413	5.0438	-0.82883	1.96	1.0353	4.9658	-0.0592	0.0182	-0.0073	-0.0462	0.0165	0.9585
43.5299	18.9848	778.7161	53.4047	-273.0668	-32.0774	603.1597	0.087393	4.4626	-0.79332	1.7296	1.0318	4.4171	-0.0592	0.0182	-0.0073	-0.0462	0.0165	0.9585
43.5421	21.9664	772.7491	51.9512	-270.973	-29.7073	594.284	-0.069893	3.4973	-0.7486	1.348	1.0195	3.5075	-0.0592	0.0182	-0.0073	-0.0462	0.0165	0.9585
43.5544	25.0671	765.3582	50.6057	-268.3334	-27.3772	584.3936	-0.23217	2.0847	-0.70765	0.79255	1.0105	2.1838	-0.0592	0.0182	-0.0073	-0.0462	0.0165	0.9585
43.5666	28.2608	757.064	49.4567	-265.3321	-25.1641	573.891	-0.36053	0.1963	-0.67749	0.053024	1.002	0.42919	-0.0592	0.0182	-0.0073	-0.0462	0.0165	0.9585
43.5788	31.5286	748.4855	48.5811	-262.1939	-23.1331	563.2534	-0.40338	-2.1171	-0.64806	-0.85065	0.96703	-1.709	-0.0592	0.0182	-0.0073	-0.0462	0.0165	0.9585
43.591	34.8717	740.233	48.0525	-259.1455	-21.3422	552.941	-0.29223	-4.657	-0.60386	-1.8402	0.86206	-4.0577	-0.0592	0.0182	-0.0073	-0.0462	0.0165	0.9585
43.6032	38.2756	732.8175	47.9276	-256.3797	-19.842	543.3343	0.055504	-6.9813	-0.51725	-2.7426	0.62542	-6.2178	-0.0592	0.0182	-0.0073	-0.0462	0.0165	0.9585
43.6154	41.7546	726.57	48.2378	-254.0271	-18.6526	534.6535	0.74292	-8.3231	-0.35548	-3.2583	0.18741	-7.487	-0.0592	0.0182	-0.0073	-0.0462	0.0165	0.9585
43.6276	45.3359	721.5921	48.9603	-252.1372	-17.7419	526.9523	1.8593	-7.5118	-0.076443	-2.9304	-0.52075	-6.7651	-0.0592	0.0182	-0.0073	-0.0462	0.0165	0.9585
43.6399	49.047	717.7314	50.0147	-250.6663	-17.0384	520.1023	3.4803	-2.9316	0.36738	-1.1298	-1.5605	-2.5316	-0.0592	0.0182	-0.0073	-0.0462	0.0165	0.9585
43.6521	52.8756	714.5867	51.2583	-249.4744	-16.4416	513.8289	5.6031	7.4489	1.0123	2.9302	-2.9554	7.1303	-0.0592	0.0182	-0.0073	-0.0462	0.0165	0.9585
43.6643	56.7452	711.4733	52.5101	-248.3145	-15.8464	507.7026	8.106	25.8923	1.8716	10.1233	-4.6612	24.3648	-0.0592	0.0182	-0.0073	-0.0462	0.0165	0.9585
43.6765	60.4661	707.4055	53.5597	-246.8243	-15.1661	501.1396	10.6601	54.5103	2.9035	21.2603	-6.5022	51.1856	-0.0592	0.0182	-0.0073	-0.0462	0.0165	0.9585
43.6887	63.7433	701.1011	54.1948	-244.5283	-14.3574	493.389	12.6429	94.5315	3.9844	36.8101	-8.1181	88.7773	-0.0592	0.0182	-0.0073	-0.0462	0.0165	0.9585
43.7009	66.1934	691.0575	54.203	-240.8689	-13.4126	483.5787	13.0437	145.2636	4.8599	56.4915	-8.8826	136.547	-0.0592	0.0182	-0.0073	-0.0462	0.0165	0.9585
43.7131	67.4126	675.7508	53.3972	-235.2899	-12.3588	470.8121	10.6549	202.8689	5.1265	78.7981	-7.9688	190.9528	-0.0592	0.0182	-0.0073	-0.0462	0.0165	0.9585
43.7254	67.081	654.0604	51.6241	-227.4048	-11.2256	454.4096	5.2794	260.0715	4.2374	100.8856	-4.8152	245.1681	-0.0592	0.0182	-0.0073	-0.0462	0.0165	0.9585
43.7376	65.1368	625.7972	48.7898	-217.1909	-9.9954	434.2153	-1.6535	308.9959	1.5317	119.7018	0.63208	291.6189	-0.0592	0.0182	-0.0073	-0.0462	0.0165	0.9585
43.7498	61.8412	591.8355	44.9208	-205.0136	-8.6037	410.6948	-8.8284	346.3335	-2.4941	133.9597	7.3524	327.0309	-0.0592	0.0182	-0.0073	-0.0462	0.0165	0.9585
43.762	57.7182	553.4948	40.2216	-191.3958	-7.0015	384.5184	-15.3672	373.1075	-7.2706	144.0686	14.4574	352.2303	-0.0592	0.0182	-0.0073	-0.0462	0.0165	0.9585
43.7742	53.2879	511.8767	34.9884	-176.763	-5.1869	356.2087	-20.9328	392.7528	-12.0998	151.3917	21.1485	370.4571	-0.0592	0.0182	-0.0073	-0.0462	0.0165	0.9585
43.7864	48.8262	467.6444	29.5044	-161.3584	-3.227	326.0638	-25.4631	409.4068	-16.3811	157.5732	26.8548	385.5808	-0.0592	0.0182	-0.0073	-0.0462	0.0165	0.9585
43.7986	44.3764	421.3391	23.9981	-145.352	-1.23	294.3925	-29.0545	426.733	-19.6747	164.0698	31.2129	401.025	-0.0592	0.0182	-0.0073	-0.0462	0.0165	0.9585
43.8109	39.8119	373.6427	18.6654	-128.9465	0.65675	261.6583	-31.6606	447.2815	-21.8708	171.8888	34.131	419.077	-0.0592	0.0182	-0.0073	-0.0462	0.0165	0.9585
43.8231	34.9036	325.513	13.7048	-112.4329	2.2401	228.5556	-33.2967	472.3528	-23.2802	181.5171	35.9104	440.892	-0.0592	0.0182	-0.0073	-0.0462	0.0165	0.9585
43.8353	29.4754	278.2287	9.3055	-96.2147	3.3365	195.9847	-33.9735	501.9206	-24.4267	192.9128	37.0465	466.3682	-0.0592	0.0182	-0.0073	-0.0462	0.0165	0.9585
43.8475	23.4141	233.305	5.636	-80.7862	3.7834	165.0207	-33.8893	534.9614	-25.9775	205.6346	38.224	494.5462	-0.0592	0.0182	-0.0073	-0.0462	0.0165	0.9585
43.8597	16.7769	192.2927	2.7829	-66.6713	3.5211	136.7227	-33.3337	569.9935	-28.3172	219.0806	39.9013	524.0349	-0.0592	0.0182	-0.0073	-0.0462	0.0165	0.9585
43.8719	9.7902	156.5184	0.74903	-54.3257	2.6013	112.0156	-32.6056	605.6313	-31.6396	232.7033	42.3626	553.5572	-0.0592	0.0182	-0.0073	-0.0462	0.0165	0.9585
43.8841	2.8983	126.6864	-0.54763	-44.0036	1.2093	91.3506	-31.8281	640.7725	-35.6805	246.0924	45.4136	582.0892	-0.0592	0.0182	-0.0073	-0.0462	0.0165	0.9585
43.8964	-3.452	102.7422	-1.2329	-35.6957	-0.42941	74.6798	-30.9924	674.4601	-40.0686	258.9069	48.7186	608.7622	-0.0592	0.0182	-0.0073	-0.0462	0.0165	0.9585
43.9086	-8.8436	83.9325	-1.4751	-29.1534	-2.0621	61.4476	-30.0733	705.7557	-44.3116	270.8178	51.8141	632.7377	-0.0592	0.0182	-0.0073	-0.0462	0.0165	0.9585
43.9208	-13.0376	69.1235	-1.4191	-23.9911	-3.5049	50.8949	-29.0315	733.7245	-48.1587	281.4841	54.4587	653.2164	-0.0592	0.0182	-0.0073	-0.0462	0.0165	0.9585
43.933	-15.8704	57.0946	-1.1862	-19.7949	-4.618	42.1859	-27.8634	757.5605	-51.3855	290.6055	56.4468	669.5604	-0.0592	0.0182	-0.0073	-0.0462	0.0165	0.9585
43.9452	-17.3082	46.8044	-0.88201	-16.2107	-5.3115	34.6472	-26.5291	776.6964	-53.9735	297.9643	57.7548	681.3554	-0.0592	0.0182	-0.0073	-0.0462	0.0165	0.9585
43.9574	-17.3231	37.5367	-0.57152	-12.9943	-5.5325	27.8097	-24.9757	790.9331	-55.8937	303.4761	58.3412	688.5448	-0.0592	0.0182	-0.0073	-0.0462	0.0165	0.9585
